{
	"asset":{
		"generator":"Khronos glTF Blender I/O v4.3.47",
		"version":"2.0"
	},
	"scene":0,
	"scenes":[
		{
			"name":"Scene",
			"nodes":[
				4
			]
		}
	],
	"nodes":[
		{
			"mesh":0,
			"name":"Cheese_Cheese_0001_0"
		},
		{
			"children":[
				0
			],
			"name":"Cheese"
		},
		{
			"children":[
				1
			],
			"name":"RootNode"
		},
		{
			"children":[
				2
			],
			"name":"Cheese_0001_LOD0.fbx"
		},
		{
			"children":[
				3
			],
			"name":"Sketchfab_model"
		}
	],
	"materials":[
		{
			"doubleSided":true,
			"name":"Cheese_0001",
			"normalTexture":{
				"index":0
			},
			"pbrMetallicRoughness":{
				"baseColorTexture":{
					"index":1
				},
				"metallicRoughnessTexture":{
					"index":2
				}
			}
		}
	],
	"meshes":[
		{
			"name":"Cheese_Cheese_0001_0",
			"primitives":[
				{
					"attributes":{
						"POSITION":0,
						"NORMAL":1,
						"TEXCOORD_0":2
					},
					"indices":3,
					"material":0
				}
			]
		}
	],
	"textures":[
		{
			"sampler":0,
			"source":0
		},
		{
			"sampler":0,
			"source":1
		},
		{
			"sampler":0,
			"source":2
		}
	],
	"images":[
		{
			"mimeType":"image/png",
			"name":"Cheese_0001_normal",
			"uri":"Cheese_0001_normal.png"
		},
		{
			"mimeType":"image/png",
			"name":"Cheese_0001_baseColor",
			"uri":"Cheese_0001_baseColor.png"
		},
		{
			"mimeType":"image/png",
			"name":"Cheese_0001_metallicRoughness",
			"uri":"Cheese_0001_metallicRoughness.png"
		}
	],
	"accessors":[
		{
			"bufferView":0,
			"componentType":5126,
			"count":5258,
			"max":[
				0.02305920235812664,
				0.07037628442049026,
				0.05418851226568222
			],
			"min":[
				-0.02275405265390873,
				-0.00022099220950622112,
				-0.05000004172325134
			],
			"type":"VEC3"
		},
		{
			"bufferView":1,
			"componentType":5126,
			"count":5258,
			"type":"VEC3"
		},
		{
			"bufferView":2,
			"componentType":5126,
			"count":5258,
			"type":"VEC2"
		},
		{
			"bufferView":3,
			"componentType":5123,
			"count":28224,
			"type":"SCALAR"
		}
	],
	"bufferViews":[
		{
			"buffer":0,
			"byteLength":63096,
			"byteOffset":0,
			"target":34962
		},
		{
			"buffer":0,
			"byteLength":63096,
			"byteOffset":63096,
			"target":34962
		},
		{
			"buffer":0,
			"byteLength":42064,
			"byteOffset":126192,
			"target":34962
		},
		{
			"buffer":0,
			"byteLength":56448,
			"byteOffset":168256,
			"target":34963
		}
	],
	"samplers":[
		{
			"magFilter":9729,
			"minFilter":9987
		}
	],
	"buffers":[
		{
			"byteLength":224704,
			"uri":"scene.bin"
		}
	]
}
